<?xml version="1.0" encoding="UTF-8"?>
<svg width="1077px" height="1037px" viewBox="0 0 1077 1037" version="1.1" xmlns="http://www.w3.org/2000/svg" xmlns:xlink="http://www.w3.org/1999/xlink">
    <title>microluxe20 Logo</title>
    <desc>Created with Sketch.</desc>
    <defs></defs>
    <g id="Page-1" stroke="none" stroke-width="1" fill="none" fill-rule="evenodd">
        <g id="microluxe20-Logo" fill="#000000">
            <path d="M402,1035.3 C385.8,1030.2 374.7,1022.4 350.1,999.6 C336.3,986.7 310.2,963.3 292.2,948 C206.1,873.6 57.9,735 27.3,700.2 C12.6,683.4 0,660.6 0,650.1 C0,643.2 11.7,603.9 103.5,304.5 C127.8,225.3 151.2,148.5 155.7,133.5 L163.8,106.5 L187.8,99.6 C239.7,84.6 453.9,39.3 559.2,21 C630,8.7 691.5,-5.68434189e-14 710.4,-5.68434189e-14 C730.8,-5.68434189e-14 738.6,4.2 760.8,27.3 C798.6,67.5 982.8,293.4 1050.9,384 C1069.8,408.9 1077,420.9 1077,427.2 C1077,432 1072.8,453 1068,473.7 C1028.1,639.3 1002.9,738.3 990.3,780.3 C953.4,900.6 947.7,918.6 940.8,934.2 C936.9,943.2 930.3,952.8 926.1,955.5 C912.9,963.9 814.5,981.9 677.1,1000.5 C593.4,1011.9 544.2,1019.7 498.6,1029.3 C466.8,1035.9 414,1039.2 402,1035.3 Z M630,994.5 C731.4,980.4 819.3,968.1 825,966.9 C835.2,964.8 834.9,964.8 818.4,962.4 C803.1,960.6 515.4,934.2 487.8,932.4 L476.4,931.5 L454.2,973.5 C441.9,996.6 432,1017 432,1018.8 C432,1020.6 435,1021.5 438.9,1020.9 C442.5,1020.3 528.6,1008.3 630,994.5 Z M411.6,1005.9 C424.8,991.8 455.7,922.2 450.6,917.7 C449.4,916.8 389.1,881.1 316.5,838.5 C243.9,795.6 151.8,741.3 111.6,717.9 C71.4,694.2 37.5,675.6 35.7,676.5 C29.4,680.4 34.8,687.3 74.4,726.3 C202.5,852.9 385.2,1014 400.5,1014 C402.3,1014 407.4,1010.4 411.6,1005.9 Z M891.9,946.5 C922.2,938.7 927,933 932.7,898.5 C947.1,813.6 964.2,513 954.6,513 C952.8,513 945,517.8 936.9,524.1 C866.7,577.2 495.9,895.2 492.9,904.8 C492.3,906.6 497.1,909.6 503.7,911.7 C522.9,917.4 612.3,929.1 700.5,937.5 C859.5,952.8 867,953.1 891.9,946.5 Z M442.5,848.4 C434.7,809.7 379.5,559.8 341.7,393 C331.5,347.7 321.9,309.3 320.4,307.5 C315,301.5 216.3,412.8 79.8,578.7 L29.7,639.9 L38.1,648.6 C60.3,672.3 190.2,750.6 405,869.7 C429,882.9 448.8,892.5 449.4,891 C450,889.5 446.7,870.3 442.5,848.4 Z M520.5,847.8 C649.5,746.7 913.2,519.6 928.2,496.5 L932.7,489.6 L884.1,474 C849.3,463.2 438.9,327 344.1,294.9 C339,293.4 338.7,294.6 340.5,307.8 C348.3,362.4 390.3,553.2 426.3,696.9 C445.2,773.1 472.2,870.6 476.1,876.9 C477.9,879.9 486.9,874.2 520.5,847.8 Z M984.3,758.7 C1010.7,669.3 1035.9,560.1 1048.2,482.4 C1051.8,459.3 1051.5,456 1047.9,456 C1040.7,456 1011,472.8 992.7,487.2 L975.9,500.4 L973.8,533.1 C972.9,550.8 971.4,596.7 970.5,634.5 C969.6,672.6 968.1,726.6 967.2,754.5 C966,792.3 966.3,804.6 969,802.2 C970.8,800.4 977.7,780.9 984.3,758.7 Z M100.2,531 C137.4,487.2 232.8,367.8 279,308.1 L303.9,275.4 L299.4,266.1 C287.7,241.5 192.6,138 181.8,138 C179.4,138 175.8,140.4 174.3,143.4 C164.4,162 30,591.3 30,604.8 C30,609.6 63.6,574.2 100.2,531 Z M949.2,465.9 C937.8,418.8 837,227.4 750.6,88.5 C719.4,38.7 705.3,20.1 700.2,22.2 C687,27.3 563.7,108 469.5,173.4 C393,226.5 360.9,250.5 355.2,259.5 C350.4,267 350.4,267.6 357.3,274.8 C361.2,279 370.2,285 377.4,288 C394.5,295.5 590.7,360.3 768,417 C846.3,441.9 918,465 927,468 C950.1,475.8 951.6,475.5 949.2,465.9 Z M1010.4,450 C1024.5,443.4 1040.7,434.4 1046.1,430.2 L1056,422.7 L1048.5,408.6 C1041,394.8 1031.4,382.8 988.2,332.4 C976.5,318.6 940.8,273 909,231 C808.2,98.1 744.9,22.2 739.5,27.6 C737.4,29.7 768.9,87.3 923.7,366.6 C952.8,419.1 978.3,462 980.7,462 C982.8,462 996.3,456.6 1010.4,450 Z M339.9,239.7 C356.7,231 436.8,177.3 501.3,131.4 C631.8,38.1 652.8,23.1 655.5,20.4 C660,15.9 634.5,19.8 567,33.3 C462.9,54 198,119.4 198,124.5 C198,129.6 316.8,246 322.2,246 C324.9,246 333,243 339.9,239.7 Z" id="Die" fill-rule="nonzero" transform="translate(538.500000, 518.485946) scale(-1, 1) rotate(-180.000000) translate(-538.500000, -518.485946) "></path>
            <text id="20" transform="translate(581.759576, 481.259576) rotate(-19.000000) translate(-581.759576, -481.259576) " font-family="Helvetica-Bold, Helvetica" font-size="270" font-weight="bold">
                <tspan x="431.598443" y="581.259576">20</tspan>
            </text>
        </g>
    </g>
</svg>